<svg width="14" height="14" viewBox="0 0 14 14" fill="none" xmlns="http://www.w3.org/2000/svg">
<path d="M5.63937 5.55975V10.227H5.04875V6.19325H5.03825C4.78538 6.33061 4.26562 6.64827 3.9375 6.87311V6.26498C4.30543 6.00671 4.68881 5.77119 5.0855 5.55975H5.63937Z" fill="#60A1A1"/>
<path fill-rule="evenodd" clip-rule="evenodd" d="M8.169 10.3154C7.19862 10.3154 6.72 9.64513 6.67888 9.08512H7.27738C7.31413 9.40887 7.61513 9.80263 8.19612 9.80263C8.93462 9.80263 9.3345 9.06061 9.338 7.90913H9.31438C9.1805 8.27138 8.757 8.60036 8.10425 8.60036C7.35875 8.60036 6.63775 8.06662 6.63775 7.05164C6.63775 6.05675 7.39988 5.46875 8.21013 5.46875C9.23563 5.46875 9.919 6.11101 9.919 7.80328C9.919 9.38264 9.26975 10.3154 8.169 10.3154ZM8.22675 8.09023C8.77363 8.09023 9.26275 7.66677 9.26275 7.05773C9.26275 6.32976 8.80162 5.9815 8.24775 5.9815C7.735 5.9815 7.22575 6.32014 7.22575 7.04027C7.22575 7.7551 7.70088 8.09023 8.22675 8.09023Z" fill="#60A1A1"/>
<path fill-rule="evenodd" clip-rule="evenodd" d="M3.37186 0.12812C3.28981 0.0460892 3.17853 0 3.0625 0C2.94647 0 2.83519 0.0460892 2.75314 0.12812C2.6711 0.210205 2.625 0.321449 2.625 0.4375V0.875H1.75C1.28587 0.875 0.840754 1.05936 0.512562 1.38759C0.184377 1.71577 0 2.16085 0 2.625V12.25C0 12.7141 0.184377 13.1592 0.512562 13.4874C0.840754 13.8156 1.28587 14 1.75 14H12.25C12.7141 14 13.1592 13.8156 13.4874 13.4874C13.8156 13.1592 14 12.7141 14 12.25V2.625C14 2.16085 13.8156 1.71577 13.4874 1.38759C13.1592 1.05936 12.7141 0.875 12.25 0.875H11.375V0.4375C11.375 0.321449 11.3289 0.210205 11.2469 0.12812C11.1648 0.0460892 11.0535 0 10.9375 0C10.8215 0 10.7102 0.0460892 10.6281 0.12812C10.5461 0.210205 10.5 0.321449 10.5 0.4375V0.875H3.5V0.4375C3.5 0.321449 3.4539 0.210205 3.37186 0.12812ZM0.875 12.25V3.5H13.125V12.25C13.125 12.482 13.0328 12.7046 12.8687 12.8687C12.7046 13.0328 12.4821 13.125 12.25 13.125H1.75C1.51794 13.125 1.29538 13.0328 1.13128 12.8687C0.967185 12.7046 0.875 12.482 0.875 12.25Z" fill="#60A1A1"/>
</svg>
